<svg width="4125" height="2333" xmlns="http://www.w3.org/2000/svg" xmlns:xlink="http://www.w3.org/1999/xlink" overflow="hidden"><defs><clipPath id="clip0"><rect x="926" y="439" width="4125" height="2333"/></clipPath><clipPath id="clip1"><rect x="1671" y="-2828" width="1060" height="7639"/></clipPath></defs><g clip-path="url(#clip0)" transform="translate(-926 -439)"><path d="M928.613 446.05 1671.11 446.05 1671.11 2233.66 928.613 2233.66Z" fill="#5B9BD5" fill-rule="evenodd" fill-opacity="0.2"/><path d="M1671.11 446.05 2730.75 446.05 2730.75 1749.69 1671.11 1749.69Z" fill="#5B9BD5" fill-rule="evenodd" fill-opacity="0.2"/><path d="M2730.75 446.05 3781.74 446.05 3781.74 2233.66 2730.75 2233.66Z" fill="#5B9BD5" fill-rule="evenodd" fill-opacity="0.2"/><path d="M3781.74 446.05 4427.99 446.05 4427.99 1749.69 3781.74 1749.69Z" fill="#5B9BD5" fill-rule="evenodd" fill-opacity="0.2"/><path d="M4427.99 446.05 5045.76 446.05 5045.76 2233.66 4427.99 2233.66Z" fill="#5B9BD5" fill-rule="evenodd" fill-opacity="0.2"/><path d="M928.613 2233.66 2730.75 2233.66 2730.75 2767.19 928.613 2767.19Z" fill="#5B9BD5" fill-rule="evenodd" fill-opacity="0.2"/><path d="M2730.75 2233.66 5045.76 2233.66 5045.76 2767.19 2730.75 2767.19Z" fill="#5B9BD5" fill-rule="evenodd" fill-opacity="0.2"/><path d="M1671.11 443.758 1671.11 2235.96" stroke="#5B9BD5" stroke-width="4.58333" stroke-linejoin="round" stroke-miterlimit="10" fill="none" fill-rule="evenodd"/><path d="M2730.75 443.758 2730.75 2769.48" stroke="#5B9BD5" stroke-width="4.58333" stroke-linejoin="round" stroke-miterlimit="10" fill="none" fill-rule="evenodd"/><path d="M3781.74 443.758 3781.74 2235.96" stroke="#5B9BD5" stroke-width="4.58333" stroke-linejoin="round" stroke-miterlimit="10" fill="none" fill-rule="evenodd"/><path d="M4427.99 443.758 4427.99 2235.96" stroke="#5B9BD5" stroke-width="4.58333" stroke-linejoin="round" stroke-miterlimit="10" fill="none" fill-rule="evenodd"/><path d="M1668.82 1749.69 2733.04 1749.69" stroke="#5B9BD5" stroke-width="4.58333" stroke-linejoin="round" stroke-miterlimit="10" fill="none" fill-rule="evenodd"/><path d="M3779.45 1749.69 4430.28 1749.69" stroke="#5B9BD5" stroke-width="4.58333" stroke-linejoin="round" stroke-miterlimit="10" fill="none" fill-rule="evenodd"/><path d="M926.322 2233.66 5048.05 2233.66" stroke="#5B9BD5" stroke-width="4.58333" stroke-linejoin="round" stroke-miterlimit="10" fill="none" fill-rule="evenodd"/><path d="M928.613 443.758 928.613 2769.48" stroke="#5B9BD5" stroke-width="4.58333" stroke-linejoin="round" stroke-miterlimit="10" fill="none" fill-rule="evenodd"/><path d="M5045.76 443.758 5045.76 2769.48" stroke="#5B9BD5" stroke-width="4.58333" stroke-linejoin="round" stroke-miterlimit="10" fill="none" fill-rule="evenodd"/><path d="M926.322 446.05 5048.05 446.05" stroke="#5B9BD5" stroke-width="4.58333" stroke-linejoin="round" stroke-miterlimit="10" fill="none" fill-rule="evenodd"/><path d="M926.322 2767.19 5048.05 2767.19" stroke="#5B9BD5" stroke-width="4.58333" stroke-linejoin="round" stroke-miterlimit="10" fill="none" fill-rule="evenodd"/><text font-family="Calibri,Calibri_MSFontService,sans-serif" font-weight="700" font-size="37" transform="matrix(1 0 0 1 953.363 484)">Problema<tspan font-weight="400" font-size="37" x="0" y="96">Falta</tspan><tspan font-weight="400" font-size="37" x="98.5417" y="96">de</tspan><tspan font-weight="400" font-size="37" x="162.135" y="96">herramientas</tspan><tspan font-weight="400" font-size="37" x="388.438" y="96">que</tspan><tspan font-weight="400" font-size="37" x="471.51" y="96">ayuden</tspan><tspan font-weight="400" font-size="37" x="608.438" y="96">a</tspan><tspan font-weight="400" font-size="37" x="651.979" y="96">las</tspan><tspan font-weight="400" font-size="37" x="0" y="147">personas</tspan><tspan font-weight="400" font-size="37" x="155.031" y="147">cuando</tspan><tspan font-weight="400" font-size="37" x="285.427" y="147">extravían</tspan><tspan font-weight="400" font-size="37" x="443.896" y="147">su</tspan><tspan font-weight="400" font-size="37" x="496.948" y="147">mascota</tspan><tspan font-weight="400" font-size="37" x="642.24" y="147">y/o</tspan><tspan font-weight="400" font-size="37" x="0" y="198">cuando</tspan><tspan font-weight="400" font-size="37" x="130.167" y="198">encuentran</tspan><tspan font-weight="400" font-size="37" x="321.613" y="198">a</tspan><tspan font-weight="400" font-size="37" x="358.371" y="198">un</tspan><tspan font-weight="400" font-size="37" x="416.327" y="198">animal</tspan><tspan font-weight="400" font-size="37" x="536.731" y="198">perdido</tspan><tspan font-weight="400" font-size="37" x="673.177" y="198">o</tspan><tspan font-weight="400" font-size="37" x="0" y="248">abandono</tspan><tspan font-weight="400" font-size="37" x="160.417" y="248">en</tspan><tspan font-weight="400" font-size="37" x="206.25" y="248">la</tspan><tspan font-weight="400" font-size="37" x="240.625" y="248">calle</tspan><tspan font-weight="400" font-size="37" x="309.375" y="248">.</tspan><tspan font-weight="400" font-size="37" x="0" y="345">Desconocimiento</tspan><tspan font-weight="400" font-size="37" x="273.74" y="345">por</tspan><tspan font-weight="400" font-size="37" x="338.938" y="345">parte</tspan><tspan font-weight="400" font-size="37" x="432.781" y="345">de</tspan><tspan font-weight="400" font-size="37" x="484.229" y="345">la</tspan><tspan font-weight="400" font-size="37" x="524.219" y="345">comunidad</tspan><tspan font-weight="400" font-size="37" x="0" y="395">de</tspan><tspan font-weight="400" font-size="37" x="49.0875" y="395">los</tspan><tspan font-weight="400" font-size="37" x="102.781" y="395">centros</tspan><tspan font-weight="400" font-size="37" x="225.798" y="395">de</tspan><tspan font-weight="400" font-size="37" x="274.908" y="395">asistencia,</tspan><tspan font-weight="400" font-size="37" x="442.04" y="395">hogares</tspan><tspan font-weight="400" font-size="37" x="572.504" y="395">de</tspan><tspan font-weight="400" font-size="37" x="621.615" y="395">paso</tspan><tspan font-weight="400" font-size="37" x="0" y="446">y</tspan><tspan font-weight="400" font-size="37" x="31.2584" y="446">protección</tspan><tspan font-weight="400" font-size="37" x="206.319" y="446">animal</tspan><tspan font-weight="400" font-size="37" x="322.369" y="446">más</tspan><tspan font-weight="400" font-size="37" x="398.315" y="446">cercanos</tspan><tspan font-weight="400" font-size="37" x="545.875" y="446">a</tspan><tspan font-weight="400" font-size="37" x="578.302" y="446">los</tspan><tspan font-weight="400" font-size="37" x="635.365" y="446">que</tspan><tspan font-weight="400" font-size="37" x="0" y="496">pueden</tspan><tspan font-weight="400" font-size="37" x="126.729" y="496">acudir</tspan><tspan font-weight="400" font-size="37" x="232.26" y="496">cuando</tspan><tspan font-weight="400" font-size="37" x="355.552" y="496">encuentran</tspan><tspan font-weight="400" font-size="37" x="540.146" y="496">un</tspan><tspan font-weight="400" font-size="37" x="591.25" y="496">animal</tspan><tspan font-weight="400" font-size="37" x="0" y="547">en</tspan><tspan font-weight="400" font-size="37" x="45.8334" y="547">la</tspan><tspan font-weight="400" font-size="37" x="80.2083" y="547">calle</tspan><tspan font-weight="400" font-size="37" x="148.958" y="547">.</tspan><tspan font-weight="400" font-size="37" x="0" y="643">Falta</tspan><tspan font-weight="400" font-size="37" x="107.617" y="643">de</tspan><tspan font-weight="400" font-size="37" x="180.285" y="643">sensibilidad</tspan><tspan font-weight="400" font-size="37" x="392.173" y="643">por</tspan><tspan font-weight="400" font-size="37" x="478.592" y="643">parte</tspan><tspan font-weight="400" font-size="37" x="593.656" y="643">de</tspan><tspan font-weight="400" font-size="37" x="666.302" y="643">la</tspan><tspan font-weight="400" font-size="37" x="0" y="694">comunidad</tspan><tspan font-weight="400" font-size="37" x="210.421" y="694">hacia</tspan><tspan font-weight="400" font-size="37" x="331.444" y="694">los</tspan><tspan font-weight="400" font-size="37" x="415.8" y="694">animales</tspan><tspan font-weight="400" font-size="37" x="591.823" y="694">menos</tspan><tspan font-weight="400" font-size="37" x="0" y="745">favorecidos</tspan><tspan font-weight="400" font-size="37" x="173.594" y="745">.</tspan><tspan font-size="37" x="0" y="841">Las soluciones o alternativas que usan las </tspan><tspan font-size="37" x="0" y="892">personas normalmente las personas de la </tspan><tspan font-size="37" x="0" y="942">cuidad para resolver esta necesidad son: </tspan><tspan font-weight="400" font-size="37" x="0" y="1039">Redes sociales</tspan><tspan font-weight="400" font-size="37" x="0" y="1135">Líneas de atención de la secretaría y policía</tspan><tspan font-weight="400" font-size="37" x="0" y="1232">Páginas web.</tspan><tspan font-weight="400" font-size="37" x="0" y="1328">Aplicativos que ofrecen algunas (no todas) de </tspan><tspan font-weight="400" font-size="37" x="0" y="1379">las características de nuestro producto.</tspan><tspan font-size="37" x="742.5" y="0">Solución</tspan><tspan font-weight="400" font-size="37" x="742.5" y="96">Aplicación móvil intuitiva, ligera y limpia para sistema operativo </tspan><tspan font-weight="400" font-size="37" x="742.5" y="147">Android 6.0 o superior con las siguientes funcionalidades:</tspan><tspan font-weight="400" font-size="37" x="742.5" y="243">-</tspan><tspan font-weight="400" font-size="37" x="761.979" y="243">Reportar animales encontrados y extraviados, indicando </tspan><tspan font-weight="400" font-size="37" x="742.5" y="294">ubicación, </tspan><tspan font-weight="400" font-size="37" x="903.49" y="294">características físicas, y </tspan><tspan font-weight="400" font-size="37" x="1256.98" y="294">de manera opcional una </tspan><tspan font-weight="400" font-size="37" x="1627.08" y="294">foto del </tspan><tspan font-weight="400" font-size="37" x="742.5" y="345">animal. </tspan><tspan font-weight="400" font-size="37" x="742.5" y="404">-</tspan><tspan font-weight="400" font-size="37" x="761.979" y="404">Geolocalizar </tspan><tspan font-weight="400" font-size="37" x="953.906" y="404">veterinarias cercanas </tspan></text><g clip-path="url(#clip1)"><text font-family="Calibri,Calibri_MSFontService,sans-serif" font-weight="400" font-size="37" transform="matrix(1 0 0 1 2231.54 888)">a la ubicación del usuario, o ver </text></g><text font-family="Calibri,Calibri_MSFontService,sans-serif" font-weight="400" font-size="37" transform="matrix(1 0 0 1 1695.86 939)">las líneas a las que se puede comunicar para brindar ayuda al <tspan font-size="37" x="0" y="51">animal. </tspan><tspan font-size="37" x="118.594" y="51">Como las siguientes: </tspan><tspan font-family="Symbol,Symbol_MSFontService,sans-serif" font-size="37" x="0" y="110"></tspan><tspan font-size="37" x="123.75" y="110">El Instituto de Protección y Bienestar Animal (IDPYBA)</tspan><tspan font-family="Symbol,Symbol_MSFontService,sans-serif" font-size="37" x="0" y="170"></tspan><tspan font-size="37" x="123.75" y="170">Patrullas de Protección Animal de la Policía Nacional</tspan><tspan font-family="Symbol,Symbol_MSFontService,sans-serif" font-size="37" x="0" y="230"></tspan><tspan font-size="37" x="123.75" y="230">Urgencias Veterinarias</tspan><tspan font-family="Symbol,Symbol_MSFontService,sans-serif" font-size="37" x="0" y="290"></tspan><tspan font-size="37" x="123.75" y="290">Veterinarias</tspan><tspan font-family="Symbol,Symbol_MSFontService,sans-serif" font-size="37" x="0" y="349"></tspan><tspan font-size="37" x="123.75" y="349">Hogares de paso</tspan><tspan font-family="Symbol,Symbol_MSFontService,sans-serif" font-size="37" x="0" y="409"></tspan><tspan font-size="37" x="123.75" y="409">Fundaciones de rescate y adopción de mascotas</tspan><tspan font-family="Symbol,Symbol_MSFontService,sans-serif" font-size="37" x="0" y="469"></tspan><tspan font-size="37" x="123.75" y="469">Refugios</tspan><tspan font-size="37" x="0" y="529">-</tspan><tspan font-size="37" x="19.4792" y="529">Ver listados </tspan><tspan font-size="37" x="201.667" y="529">de </tspan><tspan font-size="37" x="247.5" y="529">animales perdidos y </tspan><tspan font-size="37" x="554.01" y="529">encontrados.</tspan><tspan font-size="37" x="0" y="588">-</tspan><tspan font-size="37" x="19.4792" y="588">Tener un chat con los demás usuarios de la aplicación</tspan><tspan font-weight="700" font-size="37" x="1059.64" y="-455">Propuesta de Valor </tspan><tspan font-size="37" x="1059.64" y="-359">Nuestra aplicación móvil permitirá a un usuario reportar de </tspan><tspan font-size="37" x="1059.64" y="-308">manera rápida y sencilla que encontró un animal </tspan><tspan font-size="37" x="1059.64" y="-257">abandonado/perdido o que su mascota se ha extraviado. Además, </tspan><tspan font-size="37" x="1059.64" y="-207">le permitirá al usuario ubicar las instituciones más cercanas para </tspan><tspan font-size="37" x="1059.64" y="-156">llevar o pedir que recojan a la mascota encontrada</tspan><tspan font-size="37" x="1815.31" y="-156">.</tspan><tspan font-size="37" x="1059.64" y="-60">Inicialmente vamos a contar con el apoyo de veterinarias, pero se </tspan><tspan font-size="37" x="1059.64" y="-9">plantea llevar la iniciativa hasta hogares de paso, refugios y </tspan><tspan font-size="37" x="1059.64" y="41">servicios de adopción. </tspan><tspan font-size="37" x="1059.64" y="138">La aplicación móvil tendrá las siguientes características:</tspan><tspan font-size="37" x="1059.64" y="234">Los reportes se realizan mediante un sencillo formulario en el que </tspan><tspan font-size="37" x="1059.64" y="285">se identifican las principales características del animal (como </tspan><tspan font-size="37" x="1059.64" y="335">especie, tamaño, estado de salud), además de una imagen del </tspan><tspan font-size="37" x="1059.64" y="386">animal y </tspan>su ubicación. <tspan font-size="37" x="1059.64" y="483">En caso del reporte de un animal encontrado se podrá acceder a la </tspan><tspan font-size="37" x="1059.64" y="533">cámara para tomarle una </tspan>foto. Si se está reportando un animal <tspan font-size="37" x="1059.64" y="584">extraviado se puede adjuntar una foto desde el dispositivo.</tspan><tspan font-size="37" x="1059.64" y="680">Además</tspan>, el usuario podrá identificar en el mapa <tspan font-size="37" x="1782.08" y="680">veterinarias </tspan><tspan font-size="37" x="1059.64" y="731">cercanas </tspan>a las que puede llevar al animal abandonado/perdido.<tspan font-size="37" x="1059.64" y="827">Los </tspan><tspan font-size="37" x="1116.93" y="827">reportes permitirán que las respectivas instituciones puedan </tspan><tspan font-size="37" x="1059.64" y="878">tomar acciones inmediatas y salvar/recuperar al animal. </tspan><tspan font-size="37" x="1059.64" y="974">Adicionalmente, la aplicación ofrece una sección de </tspan><tspan font-size="37" x="1839.38" y="974">chat en la que </tspan><tspan font-size="37" x="1059.64" y="1025">los usuarios pueden contactarse y un mapa en que se podrán ver </tspan><tspan font-size="37" x="1059.64" y="1075">las veterinarias cercanas, ver una ruta sugerida y seguirla en </tspan><tspan font-size="37" x="1059.64" y="1126">tiempo real.</tspan><tspan font-weight="700" font-size="37" x="2110.63" y="-455">Ventaja especial</tspan><tspan font-size="37" x="2110.63" y="-359">Aunque no es la única aplicación de </tspan><tspan font-size="37" x="2110.63" y="-308">este tipo, nuestra plataforma integra </tspan><tspan font-size="37" x="2110.63" y="-257">las instituciones que se encargan de </tspan><tspan font-size="37" x="2110.63" y="-207">apoyar el proceso de cuidado y </tspan><tspan font-size="37" x="2110.63" y="-156">adopción animal con el usuario final. </tspan><tspan font-size="37" x="2110.63" y="-106">De esta manera, las personas podrán </tspan><tspan font-size="37" x="2110.63" y="-55">ayudar a un animal </tspan><tspan font-size="37" x="2110.63" y="-4">perdido/abandonado aún si no pueden </tspan><tspan font-size="37" x="2110.63" y="46">llevarlo a su casa.</tspan><tspan font-weight="700" font-size="37" x="2756.88" y="-455">Segmentos de clientes</tspan><tspan font-weight="700" font-size="37" x="2756.88" y="-359">Amantes de los animales ubicados </tspan><tspan font-weight="700" font-size="37" x="2756.88" y="-308">en Bogotá:</tspan><tspan font-size="37" x="2928.75" y="-308">Personas entre los 14 a 30 </tspan><tspan font-size="37" x="2756.88" y="-257">años, con acceso a un smartphone y </tspan><tspan font-size="37" x="2756.88" y="-207">plan de datos. Con interés por la </tspan><tspan font-size="37" x="2756.88" y="-156">protección y cuidado animal, que </tspan><tspan font-size="37" x="2756.88" y="-106">desarrolle actividades en áreas libres </tspan><tspan font-size="37" x="2756.88" y="-55">y quiera apoyar a los animales que ve </tspan><tspan font-size="37" x="2756.88" y="-4">perdidos/abandonados en la calle o </tspan><tspan font-size="37" x="2756.88" y="46">áreas púbicas.</tspan><tspan font-weight="700" font-size="37" x="0" y="849">Métricas clave </tspan><tspan font-size="37" x="0" y="945">Recolección de información para la construcción de las bases de </tspan><tspan font-size="37" x="0" y="996">datos a implementar.</tspan><tspan font-size="37" x="0" y="1092">Análisis del flujo de reporte de un animal extraviado/encontrado</tspan><tspan font-size="37" x="0" y="1189">Estudio del impacto de la solución ofrecida</tspan><tspan font-weight="700" font-size="37" x="2110.63" y="849">Canales</tspan><tspan font-family="Symbol,Symbol_MSFontService,sans-serif" font-size="37" x="2110.63" y="945"></tspan><tspan font-size="37" x="2234.38" y="945">Tiendas de aplicaciones </tspan><tspan font-size="37" x="2234.38" y="996">móviles</tspan><tspan font-family="Symbol,Symbol_MSFontService,sans-serif" font-size="37" x="2110.63" y="1092"></tspan><tspan font-size="37" x="2234.38" y="1092">Redes sociales</tspan><tspan font-family="Symbol,Symbol_MSFontService,sans-serif" font-size="37" x="2110.63" y="1189"></tspan><tspan font-size="37" x="2234.38" y="1189">Voz a voz</tspan><tspan font-weight="700" font-size="37" x="-742.5" y="1333">Estructura de costos</tspan><tspan font-family="Arial,Arial_MSFontService,sans-serif" font-size="37" x="-742.5" y="1429">•</tspan><tspan font-size="37" x="-680.625" y="1429">Codificación de la aplicación (Programadores, IUX, </tspan><tspan font-size="37" x="76.198" y="1429">testers</tspan><tspan font-size="37" x="178.177" y="1429">)</tspan><tspan font-family="Arial,Arial_MSFontService,sans-serif" font-size="37" x="-742.5" y="1489">•</tspan><tspan font-size="37" x="-680.625" y="1489">Gerencial (Gerente de proyecto, personal administrativo)</tspan><tspan font-family="Arial,Arial_MSFontService,sans-serif" font-size="37" x="-742.5" y="1549">•</tspan><tspan font-size="37" x="-680.625" y="1549">Infraestructura (Equipos, hosting, dominio)</tspan><tspan font-family="Arial,Arial_MSFontService,sans-serif" font-size="37" x="-742.5" y="1609">•</tspan><tspan font-size="37" x="-680.625" y="1609">Outsourcing (Equipo legal, contable)</tspan><tspan font-family="Arial,Arial_MSFontService,sans-serif" font-size="37" x="-742.5" y="1668">•</tspan><tspan font-size="37" x="-680.625" y="1668">Recursos (Servicios públicos, alimentación, transporte)</tspan><tspan font-family="Arial,Arial_MSFontService,sans-serif" font-size="37" x="-742.5" y="1728">•</tspan><tspan font-size="37" x="-680.625" y="1728">Soporte (actualizaciones, implementación de nuevas funcionalidades, administración de información y </tspan><tspan font-size="37" x="-680.625" y="1779">publicidad) </tspan><tspan font-weight="700" font-size="37" x="1059.64" y="1333">Fuentes de Ingreso</tspan><tspan font-size="37" x="1059.64" y="1429">Publicidad: Banners en la aplicación de productos relacionados con el cuidado animal (comida, veterinarias, artículos, guarde</tspan><tspan font-size="37" x="2924.48" y="1429">ría</tspan><tspan font-size="37" x="2963.44" y="1429">s, etc.)</tspan><tspan font-size="37" x="1059.64" y="1489">Alianzas estratégicas con instituciones aliadas como veterinarias, tiendas de alimentación de mascotas.</tspan><tspan font-size="37" x="1059.64" y="1549">Donaciones.</tspan><tspan font-size="37" x="1059.64" y="1609">Alianzas con organizaciones gubernamentales como MinTIC.</tspan></text></g></svg>