<svg width="4125" height="2598" xmlns="http://www.w3.org/2000/svg" xmlns:xlink="http://www.w3.org/1999/xlink" overflow="hidden"><defs><clipPath id="clip0"><rect x="389" y="4277" width="4125" height="2598"/></clipPath><clipPath id="clip1"><rect x="391" y="-1520" width="744" height="13546"/></clipPath><clipPath id="clip2"><rect x="391" y="-1520" width="744" height="13546"/></clipPath><clipPath id="clip3"><rect x="391" y="-1520" width="744" height="13546"/></clipPath><clipPath id="clip4"><rect x="391" y="-1520" width="744" height="13546"/></clipPath><clipPath id="clip5"><rect x="391" y="-1520" width="744" height="13546"/></clipPath><clipPath id="clip6"><rect x="391" y="-1520" width="744" height="13546"/></clipPath><clipPath id="clip7"><rect x="391" y="-1520" width="744" height="13546"/></clipPath><clipPath id="clip8"><rect x="391" y="-1520" width="744" height="13546"/></clipPath><clipPath id="clip9"><rect x="391" y="-1520" width="744" height="13546"/></clipPath><clipPath id="clip10"><rect x="391" y="-1520" width="744" height="13546"/></clipPath><clipPath id="clip11"><rect x="391" y="-1520" width="744" height="13546"/></clipPath><clipPath id="clip12"><rect x="391" y="-1520" width="744" height="13546"/></clipPath><clipPath id="clip13"><rect x="391" y="-1520" width="744" height="13546"/></clipPath><clipPath id="clip14"><rect x="391" y="-1520" width="744" height="13546"/></clipPath><clipPath id="clip15"><rect x="391" y="-1520" width="744" height="13546"/></clipPath><clipPath id="clip16"><rect x="391" y="-1520" width="744" height="13546"/></clipPath><clipPath id="clip17"><rect x="391" y="-1520" width="744" height="13546"/></clipPath><clipPath id="clip18"><rect x="391" y="-1520" width="744" height="13546"/></clipPath><clipPath id="clip19"><rect x="391" y="-1520" width="744" height="13546"/></clipPath><clipPath id="clip20"><rect x="391" y="-1520" width="744" height="13546"/></clipPath><clipPath id="clip21"><rect x="391" y="-1520" width="744" height="13546"/></clipPath><clipPath id="clip22"><rect x="391" y="-1520" width="744" height="13546"/></clipPath><clipPath id="clip23"><rect x="391" y="-1520" width="744" height="13546"/></clipPath><clipPath id="clip24"><rect x="391" y="-1520" width="744" height="13546"/></clipPath><clipPath id="clip25"><rect x="1134" y="-210" width="1060" height="10490"/></clipPath><clipPath id="clip26"><rect x="1134" y="-210" width="1060" height="10490"/></clipPath><clipPath id="clip27"><rect x="1134" y="-210" width="1060" height="10490"/></clipPath><clipPath id="clip28"><rect x="1134" y="-210" width="1060" height="10490"/></clipPath><clipPath id="clip29"><rect x="1134" y="-210" width="1060" height="10490"/></clipPath><clipPath id="clip30"><rect x="1134" y="-210" width="1060" height="10490"/></clipPath><clipPath id="clip31"><rect x="1134" y="-210" width="1060" height="10490"/></clipPath><clipPath id="clip32"><rect x="1134" y="-210" width="1060" height="10490"/></clipPath><clipPath id="clip33"><rect x="1134" y="-210" width="1060" height="10490"/></clipPath><clipPath id="clip34"><rect x="1134" y="-210" width="1060" height="10490"/></clipPath><clipPath id="clip35"><rect x="1134" y="-210" width="1060" height="10490"/></clipPath><clipPath id="clip36"><rect x="1134" y="-210" width="1060" height="10490"/></clipPath><clipPath id="clip37"><rect x="1134" y="-210" width="1060" height="10490"/></clipPath><clipPath id="clip38"><rect x="1134" y="-210" width="1060" height="10490"/></clipPath><clipPath id="clip39"><rect x="1134" y="-210" width="1060" height="10490"/></clipPath><clipPath id="clip40"><rect x="1134" y="-210" width="1060" height="10490"/></clipPath><clipPath id="clip41"><rect x="1134" y="-210" width="1060" height="10490"/></clipPath><clipPath id="clip42"><rect x="1134" y="-210" width="1060" height="10490"/></clipPath><clipPath id="clip43"><rect x="1134" y="-210" width="1060" height="10490"/></clipPath><clipPath id="clip44"><rect x="1134" y="-210" width="1060" height="10490"/></clipPath><clipPath id="clip45"><rect x="1134" y="-210" width="1060" height="10490"/></clipPath><clipPath id="clip46"><rect x="2193" y="-970" width="1052" height="12263"/></clipPath><clipPath id="clip47"><rect x="2193" y="-970" width="1052" height="12263"/></clipPath><clipPath id="clip48"><rect x="2193" y="-970" width="1052" height="12263"/></clipPath><clipPath id="clip49"><rect x="2193" y="-970" width="1052" height="12263"/></clipPath><clipPath id="clip50"><rect x="2193" y="-970" width="1052" height="12263"/></clipPath><clipPath id="clip51"><rect x="2193" y="-970" width="1052" height="12263"/></clipPath><clipPath id="clip52"><rect x="2193" y="-970" width="1052" height="12263"/></clipPath><clipPath id="clip53"><rect x="2193" y="-970" width="1052" height="12263"/></clipPath><clipPath id="clip54"><rect x="2193" y="-970" width="1052" height="12263"/></clipPath><clipPath id="clip55"><rect x="2193" y="-970" width="1052" height="12263"/></clipPath><clipPath id="clip56"><rect x="2193" y="-970" width="1052" height="12263"/></clipPath><clipPath id="clip57"><rect x="2193" y="-970" width="1052" height="12263"/></clipPath><clipPath id="clip58"><rect x="2193" y="-970" width="1052" height="12263"/></clipPath><clipPath id="clip59"><rect x="2193" y="-970" width="1052" height="12263"/></clipPath><clipPath id="clip60"><rect x="2193" y="-970" width="1052" height="12263"/></clipPath><clipPath id="clip61"><rect x="2193" y="-970" width="1052" height="12263"/></clipPath><clipPath id="clip62"><rect x="2193" y="-970" width="1052" height="12263"/></clipPath><clipPath id="clip63"><rect x="2193" y="-970" width="1052" height="12263"/></clipPath><clipPath id="clip64"><rect x="2193" y="-970" width="1052" height="12263"/></clipPath><clipPath id="clip65"><rect x="2193" y="-970" width="1052" height="12263"/></clipPath><clipPath id="clip66"><rect x="2193" y="-970" width="1052" height="12263"/></clipPath><clipPath id="clip67"><rect x="2193" y="-970" width="1052" height="12263"/></clipPath><clipPath id="clip68"><rect x="2193" y="-970" width="1052" height="12263"/></clipPath><clipPath id="clip69"><rect x="2193" y="-970" width="1052" height="12263"/></clipPath><clipPath id="clip70"><rect x="2193" y="-970" width="1052" height="12263"/></clipPath><clipPath id="clip71"><rect x="2193" y="-970" width="1052" height="12263"/></clipPath><clipPath id="clip72"><rect x="3244" y="2450" width="648" height="4283"/></clipPath><clipPath id="clip73"><rect x="3244" y="2450" width="648" height="4283"/></clipPath><clipPath id="clip74"><rect x="3244" y="2450" width="648" height="4283"/></clipPath><clipPath id="clip75"><rect x="3244" y="2450" width="648" height="4283"/></clipPath><clipPath id="clip76"><rect x="3244" y="2450" width="648" height="4283"/></clipPath><clipPath id="clip77"><rect x="3244" y="2450" width="648" height="4283"/></clipPath><clipPath id="clip78"><rect x="3244" y="2450" width="648" height="4283"/></clipPath><clipPath id="clip79"><rect x="3244" y="2450" width="648" height="4283"/></clipPath><clipPath id="clip80"><rect x="3244" y="2450" width="648" height="4283"/></clipPath><clipPath id="clip81"><rect x="3244" y="2450" width="648" height="4283"/></clipPath><clipPath id="clip82"><rect x="3891" y="1663" width="619" height="6120"/></clipPath><clipPath id="clip83"><rect x="3891" y="1663" width="619" height="6120"/></clipPath><clipPath id="clip84"><rect x="3891" y="1663" width="619" height="6120"/></clipPath><clipPath id="clip85"><rect x="3891" y="1663" width="619" height="6120"/></clipPath><clipPath id="clip86"><rect x="3891" y="1663" width="619" height="6120"/></clipPath><clipPath id="clip87"><rect x="3891" y="1663" width="619" height="6120"/></clipPath><clipPath id="clip88"><rect x="3891" y="1663" width="619" height="6120"/></clipPath><clipPath id="clip89"><rect x="3891" y="1663" width="619" height="6120"/></clipPath><clipPath id="clip90"><rect x="3891" y="1663" width="619" height="6120"/></clipPath><clipPath id="clip91"><rect x="3891" y="1663" width="619" height="6120"/></clipPath><clipPath id="clip92"><rect x="3891" y="1663" width="619" height="6120"/></clipPath><clipPath id="clip93"><rect x="1134" y="4357" width="1060" height="3330"/></clipPath><clipPath id="clip94"><rect x="1134" y="4357" width="1060" height="3330"/></clipPath><clipPath id="clip95"><rect x="1134" y="4357" width="1060" height="3330"/></clipPath><clipPath id="clip96"><rect x="1134" y="4357" width="1060" height="3330"/></clipPath><clipPath id="clip97"><rect x="1134" y="4357" width="1060" height="3330"/></clipPath><clipPath id="clip98"><rect x="1134" y="4357" width="1060" height="3330"/></clipPath><clipPath id="clip99"><rect x="3244" y="4219" width="648" height="3652"/></clipPath><clipPath id="clip100"><rect x="3244" y="4219" width="648" height="3652"/></clipPath><clipPath id="clip101"><rect x="3244" y="4219" width="648" height="3652"/></clipPath><clipPath id="clip102"><rect x="3244" y="4219" width="648" height="3652"/></clipPath><clipPath id="clip103"><rect x="391" y="4674" width="1803" height="3807"/></clipPath><clipPath id="clip104"><rect x="391" y="4674" width="1803" height="3807"/></clipPath><clipPath id="clip105"><rect x="2193" y="5043" width="2317" height="2946"/></clipPath><clipPath id="clip106"><rect x="2193" y="5043" width="2317" height="2946"/></clipPath><clipPath id="clip107"><rect x="2193" y="5043" width="2317" height="2946"/></clipPath><clipPath id="clip108"><rect x="2193" y="5043" width="2317" height="2946"/></clipPath><clipPath id="clip109"><rect x="2193" y="5043" width="2317" height="2946"/></clipPath></defs><g clip-path="url(#clip0)" transform="translate(-389 -4277)"><path d="M391.875 4285.74 1134.38 4285.74 1134.38 6305.7 391.875 6305.7Z" fill="#5B9BD5" fill-rule="evenodd" fill-opacity="0.2"/><path d="M1134.38 4285.74 2193.12 4285.74 2193.12 5784.17 1134.38 5784.17Z" fill="#5B9BD5" fill-rule="evenodd" fill-opacity="0.2"/><path d="M2193.12 4285.74 3245 4285.74 3245 6305.7 2193.12 6305.7Z" fill="#5B9BD5" fill-rule="evenodd" fill-opacity="0.2"/><path d="M3245 4285.74 3891.25 4285.74 3891.25 5784.17 3245 5784.17Z" fill="#5B9BD5" fill-rule="evenodd" fill-opacity="0.2"/><path d="M3891.25 4285.74 4509.02 4285.74 4509.02 6305.7 3891.25 6305.7Z" fill="#5B9BD5" fill-rule="evenodd" fill-opacity="0.2"/><path d="M391.875 6305.7 2193.12 6305.7 2193.12 6849.42 391.875 6849.42Z" fill="#5B9BD5" fill-rule="evenodd" fill-opacity="0.2"/><path d="M2193.12 6305.7 4509.02 6305.7 4509.02 6849.42 2193.12 6849.42Z" fill="#5B9BD5" fill-rule="evenodd" fill-opacity="0.2"/><path d="M1134.38 4283.45 1134.38 6308" stroke="#5B9BD5" stroke-width="4.58333" stroke-linejoin="round" stroke-miterlimit="10" fill="none" fill-rule="evenodd"/><path d="M2193.12 4283.45 2193.12 6851.72" stroke="#5B9BD5" stroke-width="4.58333" stroke-linejoin="round" stroke-miterlimit="10" fill="none" fill-rule="evenodd"/><path d="M3245 4283.45 3245 6308" stroke="#5B9BD5" stroke-width="4.58333" stroke-linejoin="round" stroke-miterlimit="10" fill="none" fill-rule="evenodd"/><path d="M3891.25 4283.45 3891.25 6308" stroke="#5B9BD5" stroke-width="4.58333" stroke-linejoin="round" stroke-miterlimit="10" fill="none" fill-rule="evenodd"/><path d="M1132.08 5784.17 2195.42 5784.17" stroke="#5B9BD5" stroke-width="4.58333" stroke-linejoin="round" stroke-miterlimit="10" fill="none" fill-rule="evenodd"/><path d="M3242.71 5784.17 3893.54 5784.17" stroke="#5B9BD5" stroke-width="4.58333" stroke-linejoin="round" stroke-miterlimit="10" fill="none" fill-rule="evenodd"/><path d="M389.583 6305.7 4511.31 6305.7" stroke="#5B9BD5" stroke-width="4.58333" stroke-linejoin="round" stroke-miterlimit="10" fill="none" fill-rule="evenodd"/><path d="M391.875 4283.45 391.875 6851.72" stroke="#5B9BD5" stroke-width="4.58333" stroke-linejoin="round" stroke-miterlimit="10" fill="none" fill-rule="evenodd"/><path d="M4509.02 4283.45 4509.02 6851.72" stroke="#5B9BD5" stroke-width="4.58333" stroke-linejoin="round" stroke-miterlimit="10" fill="none" fill-rule="evenodd"/><path d="M389.583 4285.74 4511.31 4285.74" stroke="#5B9BD5" stroke-width="4.58333" stroke-linejoin="round" stroke-miterlimit="10" fill="none" fill-rule="evenodd"/><path d="M389.583 6849.42 4511.31 6849.42" stroke="#5B9BD5" stroke-width="4.58333" stroke-linejoin="round" stroke-miterlimit="10" fill="none" fill-rule="evenodd"/><g clip-path="url(#clip1)"><text font-family="Calibri,Calibri_MSFontService,sans-serif" font-weight="700" font-size="41" transform="matrix(1 0 0 1 416.625 4329)">Problema</text></g><g clip-path="url(#clip2)"><text font-family="Calibri,Calibri_MSFontService,sans-serif" font-weight="400" font-size="41" transform="matrix(1 0 0 1 416.625 4431)">Falta</text></g><text font-family="Calibri,Calibri_MSFontService,sans-serif" font-weight="400" font-size="41" transform="matrix(1 0 0 1 513.058 4431)">de<tspan font-size="41" x="57.475" y="0">herramientas</tspan><tspan font-size="41" x="297.71" y="0">que</tspan><tspan font-size="41" x="376.956" y="0">ayuden</tspan><tspan font-size="41" x="516.381" y="0">a</tspan><tspan font-size="41" x="550.963" y="0">las</tspan></text><g clip-path="url(#clip3)"><text font-family="Calibri,Calibri_MSFontService,sans-serif" font-weight="400" font-size="41" transform="matrix(1 0 0 1 416.625 4488)">personas</text></g><text font-family="Calibri,Calibri_MSFontService,sans-serif" font-weight="400" font-size="41" transform="matrix(1 0 0 1 589.073 4488)">cuando<tspan font-size="41" x="144.375" y="0">extravían</tspan><tspan font-size="41" x="320.833" y="0">su</tspan><tspan font-size="41" x="379.271" y="0">mascota</tspan></text><g clip-path="url(#clip4)"><text font-family="Calibri,Calibri_MSFontService,sans-serif" font-weight="400" font-size="41" transform="matrix(1 0 0 1 416.625 4545)">y/o</text></g><text font-family="Calibri,Calibri_MSFontService,sans-serif" font-weight="400" font-size="41" transform="matrix(1 0 0 1 501.875 4545)">cuando<tspan font-size="41" x="152.281" y="0">encuentran</tspan><tspan font-size="41" x="373.885" y="0">a</tspan><tspan font-size="41" x="421.896" y="0">un</tspan><tspan font-size="41" x="493.969" y="0">animal</tspan></text><g clip-path="url(#clip5)"><text font-family="Calibri,Calibri_MSFontService,sans-serif" font-weight="400" font-size="41" transform="matrix(1 0 0 1 416.625 4602)">perdido</text></g><text font-family="Calibri,Calibri_MSFontService,sans-serif" font-weight="400" font-size="41" transform="matrix(1 0 0 1 557.562 4602)">o<tspan font-size="41" x="30.9375" y="0">abandono</tspan><tspan font-size="41" x="209.687" y="0">en</tspan><tspan font-size="41" x="261.25" y="0">la</tspan><tspan font-size="41" x="299.635" y="0">calle</tspan>.</text><g clip-path="url(#clip6)"><text font-family="Calibri,Calibri_MSFontService,sans-serif" font-weight="400" font-size="41" transform="matrix(1 0 0 1 416.625 4705)">Desconocimiento</text></g><text font-family="Calibri,Calibri_MSFontService,sans-serif" font-weight="400" font-size="41" transform="matrix(1 0 0 1 754.073 4705)">por<tspan font-size="41" x="103.125" y="0">parte</tspan><tspan font-size="41" x="238.333" y="0">de</tspan><tspan font-size="41" x="325.99" y="0">la</tspan></text><g clip-path="url(#clip7)"><text font-family="Calibri,Calibri_MSFontService,sans-serif" font-weight="400" font-size="41" transform="matrix(1 0 0 1 416.625 4762)">comunidad</text></g><text font-family="Calibri,Calibri_MSFontService,sans-serif" font-weight="400" font-size="41" transform="matrix(1 0 0 1 619.552 4762)">de<tspan font-size="41" x="56.8333" y="0">los</tspan><tspan font-size="41" x="118.823" y="0">centros</tspan><tspan font-size="41" x="258.729" y="0">de</tspan><tspan font-size="41" x="315.563" y="0">asistencia,</tspan></text><g clip-path="url(#clip8)"><text font-family="Calibri,Calibri_MSFontService,sans-serif" font-weight="400" font-size="41" transform="matrix(1 0 0 1 416.625 4819)">hogares</text></g><text font-family="Calibri,Calibri_MSFontService,sans-serif" font-weight="400" font-size="41" transform="matrix(1 0 0 1 559.556 4819)">de<tspan font-size="41" x="51.8375" y="0">paso</tspan><tspan font-size="41" x="140.342" y="0">y</tspan><tspan font-size="41" x="168.713" y="0">protección</tspan><tspan font-size="41" x="358.073" y="0">animal</tspan><tspan font-size="41" x="480.975" y="0">más</tspan></text><g clip-path="url(#clip9)"><text font-family="Calibri,Calibri_MSFontService,sans-serif" font-weight="400" font-size="41" transform="matrix(1 0 0 1 416.625 4876)">cercanos</text></g><text font-family="Calibri,Calibri_MSFontService,sans-serif" font-weight="400" font-size="41" transform="matrix(1 0 0 1 574.452 4876)">a<tspan font-size="41" x="28.9208" y="0">los</tspan><tspan font-size="41" x="85.9146" y="0">que</tspan><tspan font-size="41" x="159.546" y="0">pueden</tspan><tspan font-size="41" x="297.344" y="0">acudir</tspan><tspan font-size="41" x="411.079" y="0">cuando</tspan></text><g clip-path="url(#clip10)"><text font-family="Calibri,Calibri_MSFontService,sans-serif" font-weight="400" font-size="41" transform="matrix(1 0 0 1 416.625 4933)">encuentran</text></g><text font-family="Calibri,Calibri_MSFontService,sans-serif" font-weight="400" font-size="41" transform="matrix(1 0 0 1 618.865 4933)">un<tspan font-size="41" x="52.7083" y="0">animal</tspan><tspan font-size="41" x="175.313" y="0">en</tspan><tspan font-size="41" x="226.875" y="0">la</tspan><tspan font-size="41" x="265.26" y="0">calle</tspan><tspan font-size="41" x="342.031" y="0">.</tspan></text><g clip-path="url(#clip11)"><text font-family="Calibri,Calibri_MSFontService,sans-serif" font-weight="400" font-size="41" transform="matrix(1 0 0 1 416.625 5035)">Falta</text></g><text font-family="Calibri,Calibri_MSFontService,sans-serif" font-weight="400" font-size="41" transform="matrix(1 0 0 1 523.188 5035)">de<tspan font-size="41" x="67.6041" y="0">sensibilidad</tspan><tspan font-size="41" x="291.042" y="0">por</tspan><tspan font-size="41" x="374.115" y="0">parte</tspan><tspan font-size="41" x="489.271" y="0">de</tspan><tspan font-size="41" x="556.875" y="0">la</tspan></text><g clip-path="url(#clip12)"><text font-family="Calibri,Calibri_MSFontService,sans-serif" font-weight="400" font-size="41" transform="matrix(1 0 0 1 416.625 5092)">comunidad</text></g><text font-family="Calibri,Calibri_MSFontService,sans-serif" font-weight="400" font-size="41" transform="matrix(1 0 0 1 631.469 5092)">hacia<tspan font-size="41" x="114.01" y="0">los</tspan><tspan font-size="41" x="187.917" y="0">animales</tspan><tspan font-size="41" x="364.375" y="0">menos</tspan></text><g clip-path="url(#clip13)"><text font-family="Calibri,Calibri_MSFontService,sans-serif" font-weight="400" font-size="41" transform="matrix(1 0 0 1 416.625 5149)">favorecidos</text></g><text font-family="Calibri,Calibri_MSFontService,sans-serif" font-weight="400" font-size="41" transform="matrix(1 0 0 1 610.844 5149)">.</text><g clip-path="url(#clip14)"><text font-family="Calibri,Calibri_MSFontService,sans-serif" font-weight="700" font-size="41" transform="matrix(1 0 0 1 416.625 5252)">Las soluciones o alternativas que usan </text></g><g clip-path="url(#clip15)"><text font-family="Calibri,Calibri_MSFontService,sans-serif" font-weight="700" font-size="41" transform="matrix(1 0 0 1 416.625 5309)">las personas normalmente las personas </text></g><g clip-path="url(#clip16)"><text font-family="Calibri,Calibri_MSFontService,sans-serif" font-weight="700" font-size="41" transform="matrix(1 0 0 1 416.625 5366)">de la cuidad para resolver esta </text></g><g clip-path="url(#clip17)"><text font-family="Calibri,Calibri_MSFontService,sans-serif" font-weight="700" font-size="41" transform="matrix(1 0 0 1 416.625 5423)">necesidad son: </text></g><g clip-path="url(#clip18)"><text font-family="Calibri,Calibri_MSFontService,sans-serif" font-weight="400" font-size="41" transform="matrix(1 0 0 1 416.625 5526)">Redes sociales</text></g><g clip-path="url(#clip19)"><text font-family="Calibri,Calibri_MSFontService,sans-serif" font-weight="400" font-size="41" transform="matrix(1 0 0 1 416.625 5628)">Líneas de atención de la secretaría y </text></g><g clip-path="url(#clip20)"><text font-family="Calibri,Calibri_MSFontService,sans-serif" font-weight="400" font-size="41" transform="matrix(1 0 0 1 416.625 5685)">policía</text></g><g clip-path="url(#clip21)"><text font-family="Calibri,Calibri_MSFontService,sans-serif" font-weight="400" font-size="41" transform="matrix(1 0 0 1 416.625 5788)">Páginas web.</text></g><g clip-path="url(#clip22)"><text font-family="Calibri,Calibri_MSFontService,sans-serif" font-weight="400" font-size="41" transform="matrix(1 0 0 1 416.625 5891)">Aplicativos que ofrecen algunas (no </text></g><g clip-path="url(#clip23)"><text font-family="Calibri,Calibri_MSFontService,sans-serif" font-weight="400" font-size="41" transform="matrix(1 0 0 1 416.625 5948)">todas) de las características de nuestro </text></g><g clip-path="url(#clip24)"><text font-family="Calibri,Calibri_MSFontService,sans-serif" font-weight="400" font-size="41" transform="matrix(1 0 0 1 416.625 6005)">producto.</text></g><g clip-path="url(#clip25)"><text font-family="Calibri,Calibri_MSFontService,sans-serif" font-weight="700" font-size="41" transform="matrix(1 0 0 1 1159.12 4329)">Solución</text></g><g clip-path="url(#clip26)"><text font-family="Calibri,Calibri_MSFontService,sans-serif" font-weight="400" font-size="41" transform="matrix(1 0 0 1 1159.12 4431)">Aplicación móvil intuitiva, ligera y limpia para sistema </text></g><g clip-path="url(#clip27)"><text font-family="Calibri,Calibri_MSFontService,sans-serif" font-weight="400" font-size="41" transform="matrix(1 0 0 1 1159.12 4488)">operativo Android 6.0 o superior con las siguientes </text></g><g clip-path="url(#clip28)"><text font-family="Calibri,Calibri_MSFontService,sans-serif" font-weight="400" font-size="41" transform="matrix(1 0 0 1 1159.12 4545)">funcionalidades:</text></g><g clip-path="url(#clip29)"><text font-family="Calibri,Calibri_MSFontService,sans-serif" font-weight="400" font-size="41" transform="matrix(1 0 0 1 1159.12 4648)">-</text></g><text font-family="Calibri,Calibri_MSFontService,sans-serif" font-weight="400" font-size="41" transform="matrix(1 0 0 1 1180.9 4648)">Reportar animales encontrados y extraviados, indicando </text><g clip-path="url(#clip30)"><text font-family="Calibri,Calibri_MSFontService,sans-serif" font-weight="400" font-size="41" transform="matrix(1 0 0 1 1159.12 4705)">su localización, características físicas, y también se podrá </text></g><g clip-path="url(#clip31)"><text font-family="Calibri,Calibri_MSFontService,sans-serif" font-weight="400" font-size="41" transform="matrix(1 0 0 1 1159.12 4762)">incluir una foto del animal. </text></g><g clip-path="url(#clip32)"><text font-family="Calibri,Calibri_MSFontService,sans-serif" font-weight="400" font-size="41" transform="matrix(1 0 0 1 1159.12 4828)">-</text></g><text font-family="Calibri,Calibri_MSFontService,sans-serif" font-weight="400" font-size="41" transform="matrix(1 0 0 1 1180.9 4828)">Geolocalizar instituciones de cuidado animal cercanas a la </text><g clip-path="url(#clip33)"><text font-family="Calibri,Calibri_MSFontService,sans-serif" font-weight="400" font-size="41" transform="matrix(1 0 0 1 1159.12 4885)">ubicación del usuario, o ver las líneas a las que se puede </text></g><g clip-path="url(#clip34)"><text font-family="Calibri,Calibri_MSFontService,sans-serif" font-weight="400" font-size="41" transform="matrix(1 0 0 1 1159.12 4942)">comunicar para brindar ayuda al animal. Entre ellas: </text></g><g clip-path="url(#clip35)"><text font-family="Symbol,Symbol_MSFontService,sans-serif" font-weight="400" font-size="41" transform="matrix(1 0 0 1 1159.12 5008)"></text></g><text font-family="Calibri,Calibri_MSFontService,sans-serif" font-weight="400" font-size="41" transform="matrix(1 0 0 1 1282.87 5008)">El Instituto de Protección y Bienestar Animal <tspan font-size="41" x="0" y="57">(IDPYBA)</tspan></text><g clip-path="url(#clip36)"><text font-family="Symbol,Symbol_MSFontService,sans-serif" font-weight="400" font-size="41" transform="matrix(1 0 0 1 1159.12 5131)"></text></g><text font-family="Calibri,Calibri_MSFontService,sans-serif" font-weight="400" font-size="41" transform="matrix(1 0 0 1 1282.87 5131)">Patrullas de Protección Animal de la Policía Nacional</text><g clip-path="url(#clip37)"><text font-family="Symbol,Symbol_MSFontService,sans-serif" font-weight="400" font-size="41" transform="matrix(1 0 0 1 1159.12 5197)"></text></g><text font-family="Calibri,Calibri_MSFontService,sans-serif" font-weight="400" font-size="41" transform="matrix(1 0 0 1 1282.87 5197)">Urgencias Veterinarias</text><g clip-path="url(#clip38)"><text font-family="Symbol,Symbol_MSFontService,sans-serif" font-weight="400" font-size="41" transform="matrix(1 0 0 1 1159.12 5263)"></text></g><text font-family="Calibri,Calibri_MSFontService,sans-serif" font-weight="400" font-size="41" transform="matrix(1 0 0 1 1282.87 5263)">Veterinarias</text><g clip-path="url(#clip39)"><text font-family="Symbol,Symbol_MSFontService,sans-serif" font-weight="400" font-size="41" transform="matrix(1 0 0 1 1159.12 5329)"></text></g><text font-family="Calibri,Calibri_MSFontService,sans-serif" font-weight="400" font-size="41" transform="matrix(1 0 0 1 1282.87 5329)">Hogares de paso</text><g clip-path="url(#clip40)"><text font-family="Symbol,Symbol_MSFontService,sans-serif" font-weight="400" font-size="41" transform="matrix(1 0 0 1 1159.12 5395)"></text></g><text font-family="Calibri,Calibri_MSFontService,sans-serif" font-weight="400" font-size="41" transform="matrix(1 0 0 1 1282.87 5395)">Fundaciones de rescate y adopción de mascotas</text><g clip-path="url(#clip41)"><text font-family="Symbol,Symbol_MSFontService,sans-serif" font-weight="400" font-size="41" transform="matrix(1 0 0 1 1159.12 5461)"></text></g><text font-family="Calibri,Calibri_MSFontService,sans-serif" font-weight="400" font-size="41" transform="matrix(1 0 0 1 1282.87 5461)">Refugios</text><g clip-path="url(#clip42)"><text font-family="Calibri,Calibri_MSFontService,sans-serif" font-weight="400" font-size="41" transform="matrix(1 0 0 1 1159.12 5528)">-</text></g><text font-family="Calibri,Calibri_MSFontService,sans-serif" font-weight="400" font-size="41" transform="matrix(1 0 0 1 1180.9 5528)">Ver listados o geolocalización de animales perdidos y </text><g clip-path="url(#clip43)"><text font-family="Calibri,Calibri_MSFontService,sans-serif" font-weight="400" font-size="41" transform="matrix(1 0 0 1 1159.12 5584)">encontrados cercanos a la ubicación del usuario.</text></g><g clip-path="url(#clip44)"><text font-family="Calibri,Calibri_MSFontService,sans-serif" font-weight="400" font-size="41" transform="matrix(1 0 0 1 1159.12 5651)">-</text></g><text font-family="Calibri,Calibri_MSFontService,sans-serif" font-weight="400" font-size="41" transform="matrix(1 0 0 1 1180.9 5651)">Ver noticias de interés y datos curiosos de los animales de </text><g clip-path="url(#clip45)"><text font-family="Calibri,Calibri_MSFontService,sans-serif" font-weight="400" font-size="41" transform="matrix(1 0 0 1 1159.12 5707)">compañía.</text></g><g clip-path="url(#clip46)"><text font-family="Calibri,Calibri_MSFontService,sans-serif" font-weight="700" font-size="41" transform="matrix(1 0 0 1 2217.87 4329)">Propuesta de Valor </text></g><g clip-path="url(#clip47)"><text font-family="Calibri,Calibri_MSFontService,sans-serif" font-weight="400" font-size="41" transform="matrix(1 0 0 1 2217.87 4431)">Nuestra aplicación móvil permitirá a un usuario reportar de </text></g><g clip-path="url(#clip48)"><text font-family="Calibri,Calibri_MSFontService,sans-serif" font-weight="400" font-size="41" transform="matrix(1 0 0 1 2217.87 4488)">manera rápida y sencilla que encontró un animal </text></g><g clip-path="url(#clip49)"><text font-family="Calibri,Calibri_MSFontService,sans-serif" font-weight="400" font-size="41" transform="matrix(1 0 0 1 2217.87 4545)">abandonado/perdido o que su mascota se ha extraviado. </text></g><g clip-path="url(#clip50)"><text font-family="Calibri,Calibri_MSFontService,sans-serif" font-weight="400" font-size="41" transform="matrix(1 0 0 1 2217.87 4602)">Además, le permitirá al usuario ubicar las instituciones más </text></g><g clip-path="url(#clip51)"><text font-family="Calibri,Calibri_MSFontService,sans-serif" font-weight="400" font-size="41" transform="matrix(1 0 0 1 2217.87 4659)">cercanas para llevar o pedir que recojan a la mascota </text></g><g clip-path="url(#clip52)"><text font-family="Calibri,Calibri_MSFontService,sans-serif" font-weight="400" font-size="41" transform="matrix(1 0 0 1 2217.87 4716)">encontrada.</text></g><g clip-path="url(#clip53)"><text font-family="Calibri,Calibri_MSFontService,sans-serif" font-weight="400" font-size="41" transform="matrix(1 0 0 1 2217.87 4819)">Los reportes se realizan mediante un sencillo formulario en </text></g><g clip-path="url(#clip54)"><text font-family="Calibri,Calibri_MSFontService,sans-serif" font-weight="400" font-size="41" transform="matrix(1 0 0 1 2217.87 4876)">el que se identifican las principales características del </text></g><g clip-path="url(#clip55)"><text font-family="Calibri,Calibri_MSFontService,sans-serif" font-weight="400" font-size="41" transform="matrix(1 0 0 1 2217.87 4933)">animal (como especie, tamaño, estado de salud), además </text></g><g clip-path="url(#clip56)"><text font-family="Calibri,Calibri_MSFontService,sans-serif" font-weight="400" font-size="41" transform="matrix(1 0 0 1 2217.87 4990)">de una imagen del animal y su ubicación. </text></g><g clip-path="url(#clip57)"><text font-family="Calibri,Calibri_MSFontService,sans-serif" font-weight="400" font-size="41" transform="matrix(1 0 0 1 2217.87 5092)">En caso del reporte de un animal encontrado se podrá </text></g><g clip-path="url(#clip58)"><text font-family="Calibri,Calibri_MSFontService,sans-serif" font-weight="400" font-size="41" transform="matrix(1 0 0 1 2217.87 5149)">acceder a la cámara para tomarle una foto y al mapa para </text></g><g clip-path="url(#clip59)"><text font-family="Calibri,Calibri_MSFontService,sans-serif" font-weight="400" font-size="41" transform="matrix(1 0 0 1 2217.87 5206)">indicar su ubicación. Además, el usuario podrá identificar </text></g><g clip-path="url(#clip60)"><text font-family="Calibri,Calibri_MSFontService,sans-serif" font-weight="400" font-size="41" transform="matrix(1 0 0 1 2217.87 5263)">en el mapa instituciones, hogares de paso, o veterinarias </text></g><g clip-path="url(#clip61)"><text font-family="Calibri,Calibri_MSFontService,sans-serif" font-weight="400" font-size="41" transform="matrix(1 0 0 1 2217.87 5320)">cercanas a las que puede llevar al animal </text></g><g clip-path="url(#clip62)"><text font-family="Calibri,Calibri_MSFontService,sans-serif" font-weight="400" font-size="41" transform="matrix(1 0 0 1 2217.87 5377)">abandonado/perdido.</text></g><g clip-path="url(#clip63)"><text font-family="Calibri,Calibri_MSFontService,sans-serif" font-weight="400" font-size="41" transform="matrix(1 0 0 1 2217.87 5480)">Si por el contrario se está reportando un animal extraviado </text></g><g clip-path="url(#clip64)"><text font-family="Calibri,Calibri_MSFontService,sans-serif" font-weight="400" font-size="41" transform="matrix(1 0 0 1 2217.87 5537)">se puede adjuntar una foto desde el dispositivo e indicar en </text></g><g clip-path="url(#clip65)"><text font-family="Calibri,Calibri_MSFontService,sans-serif" font-weight="400" font-size="41" transform="matrix(1 0 0 1 2217.87 5594)">el mapa su última ubicación conocida.</text></g><g clip-path="url(#clip66)"><text font-family="Calibri,Calibri_MSFontService,sans-serif" font-weight="400" font-size="41" transform="matrix(1 0 0 1 2217.87 5696)">Los reportes permitirán que las respectivas instituciones </text></g><g clip-path="url(#clip67)"><text font-family="Calibri,Calibri_MSFontService,sans-serif" font-weight="400" font-size="41" transform="matrix(1 0 0 1 2217.87 5753)">puedan tomar acciones inmediatas y salvar/recuperar al </text></g><g clip-path="url(#clip68)"><text font-family="Calibri,Calibri_MSFontService,sans-serif" font-weight="400" font-size="41" transform="matrix(1 0 0 1 2217.87 5810)">animal. </text></g><g clip-path="url(#clip69)"><text font-family="Calibri,Calibri_MSFontService,sans-serif" font-weight="400" font-size="41" transform="matrix(1 0 0 1 2217.87 5913)">Adicionalmente, la aplicación ofrece una sección de </text></g><g clip-path="url(#clip70)"><text font-family="Calibri,Calibri_MSFontService,sans-serif" font-weight="400" font-size="41" transform="matrix(1 0 0 1 2217.87 5970)">noticias de los animales reportados y datos de interés para </text></g><g clip-path="url(#clip71)"><text font-family="Calibri,Calibri_MSFontService,sans-serif" font-weight="400" font-size="41" transform="matrix(1 0 0 1 2217.87 6027)">usuarios con mascotas. </text></g><g clip-path="url(#clip72)"><text font-family="Calibri,Calibri_MSFontService,sans-serif" font-weight="700" font-size="41" transform="matrix(1 0 0 1 3269.75 4329)">Ventaja especial</text></g><g clip-path="url(#clip73)"><text font-family="Calibri,Calibri_MSFontService,sans-serif" font-weight="400" font-size="41" transform="matrix(1 0 0 1 3269.75 4431)">Aunque no es la única aplicación de </text></g><g clip-path="url(#clip74)"><text font-family="Calibri,Calibri_MSFontService,sans-serif" font-weight="400" font-size="41" transform="matrix(1 0 0 1 3269.75 4488)">este tipo, nuestra plataforma </text></g><g clip-path="url(#clip75)"><text font-family="Calibri,Calibri_MSFontService,sans-serif" font-weight="400" font-size="41" transform="matrix(1 0 0 1 3269.75 4545)">integra las instituciones que se </text></g><g clip-path="url(#clip76)"><text font-family="Calibri,Calibri_MSFontService,sans-serif" font-weight="400" font-size="41" transform="matrix(1 0 0 1 3269.75 4602)">encargan de apoyar el proceso de </text></g><g clip-path="url(#clip77)"><text font-family="Calibri,Calibri_MSFontService,sans-serif" font-weight="400" font-size="41" transform="matrix(1 0 0 1 3269.75 4659)">cuidado y adopción animal con el </text></g><g clip-path="url(#clip78)"><text font-family="Calibri,Calibri_MSFontService,sans-serif" font-weight="400" font-size="41" transform="matrix(1 0 0 1 3269.75 4716)">usuario final. De esta manera, las </text></g><g clip-path="url(#clip79)"><text font-family="Calibri,Calibri_MSFontService,sans-serif" font-weight="400" font-size="41" transform="matrix(1 0 0 1 3269.75 4773)">personas podrán ayudar a un </text></g><g clip-path="url(#clip80)"><text font-family="Calibri,Calibri_MSFontService,sans-serif" font-weight="400" font-size="41" transform="matrix(1 0 0 1 3269.75 4830)">animal perdido/abandonado aún si </text></g><g clip-path="url(#clip81)"><text font-family="Calibri,Calibri_MSFontService,sans-serif" font-weight="400" font-size="41" transform="matrix(1 0 0 1 3269.75 4887)">no pueden llevarlo a su casa.</text></g><g clip-path="url(#clip82)"><text font-family="Calibri,Calibri_MSFontService,sans-serif" font-weight="700" font-size="41" transform="matrix(1 0 0 1 3916 4329)">Segmentos de clientes</text></g><g clip-path="url(#clip83)"><text font-family="Calibri,Calibri_MSFontService,sans-serif" font-weight="700" font-size="41" transform="matrix(1 0 0 1 3916 4431)">Amantes de los animales </text></g><g clip-path="url(#clip84)"><text font-family="Calibri,Calibri_MSFontService,sans-serif" font-weight="700" font-size="41" transform="matrix(1 0 0 1 3916 4488)">ubicados en Bogotá:</text></g><text font-family="Calibri,Calibri_MSFontService,sans-serif" font-weight="400" font-size="41" transform="matrix(1 0 0 1 4274.07 4488)">Personas </text><g clip-path="url(#clip85)"><text font-family="Calibri,Calibri_MSFontService,sans-serif" font-weight="400" font-size="41" transform="matrix(1 0 0 1 3916 4545)">entre los 14 a 30 años, con acceso </text></g><g clip-path="url(#clip86)"><text font-family="Calibri,Calibri_MSFontService,sans-serif" font-weight="400" font-size="41" transform="matrix(1 0 0 1 3916 4602)">a un smartphone y plan de datos. </text></g><g clip-path="url(#clip87)"><text font-family="Calibri,Calibri_MSFontService,sans-serif" font-weight="400" font-size="41" transform="matrix(1 0 0 1 3916 4659)">Con interés por la protección y </text></g><g clip-path="url(#clip88)"><text font-family="Calibri,Calibri_MSFontService,sans-serif" font-weight="400" font-size="41" transform="matrix(1 0 0 1 3916 4716)">cuidado animal, que desarrolle </text></g><g clip-path="url(#clip89)"><text font-family="Calibri,Calibri_MSFontService,sans-serif" font-weight="400" font-size="41" transform="matrix(1 0 0 1 3916 4773)">actividades en áreas libres y </text></g><g clip-path="url(#clip90)"><text font-family="Calibri,Calibri_MSFontService,sans-serif" font-weight="400" font-size="41" transform="matrix(1 0 0 1 3916 4830)">quiera apoyar a los animales que </text></g><g clip-path="url(#clip91)"><text font-family="Calibri,Calibri_MSFontService,sans-serif" font-weight="400" font-size="41" transform="matrix(1 0 0 1 3916 4887)">ve perdidos/abandonados en la </text></g><g clip-path="url(#clip92)"><text font-family="Calibri,Calibri_MSFontService,sans-serif" font-weight="400" font-size="41" transform="matrix(1 0 0 1 3916 4944)">calle o áreas púbicas.</text></g><g clip-path="url(#clip93)"><text font-family="Calibri,Calibri_MSFontService,sans-serif" font-weight="700" font-size="41" transform="matrix(1 0 0 1 1159.12 5827)">Métricas clave </text></g><g clip-path="url(#clip94)"><text font-family="Calibri,Calibri_MSFontService,sans-serif" font-weight="400" font-size="41" transform="matrix(1 0 0 1 1159.12 5929)">Recolección de información para la construcción de las </text></g><g clip-path="url(#clip95)"><text font-family="Calibri,Calibri_MSFontService,sans-serif" font-weight="400" font-size="41" transform="matrix(1 0 0 1 1159.12 5986)">bases de datos a implementar.</text></g><g clip-path="url(#clip96)"><text font-family="Calibri,Calibri_MSFontService,sans-serif" font-weight="400" font-size="41" transform="matrix(1 0 0 1 1159.12 6089)">Análisis del flujo de reporte de un animal </text></g><g clip-path="url(#clip97)"><text font-family="Calibri,Calibri_MSFontService,sans-serif" font-weight="400" font-size="41" transform="matrix(1 0 0 1 1159.12 6146)">extraviado/encontrado</text></g><g clip-path="url(#clip98)"><text font-family="Calibri,Calibri_MSFontService,sans-serif" font-weight="400" font-size="41" transform="matrix(1 0 0 1 1159.12 6249)">Estudio del impacto de la solución ofrecida</text></g><g clip-path="url(#clip99)"><text font-family="Calibri,Calibri_MSFontService,sans-serif" font-weight="700" font-size="41" transform="matrix(1 0 0 1 3269.75 5827)">Canales</text></g><g clip-path="url(#clip100)"><text font-family="Symbol,Symbol_MSFontService,sans-serif" font-weight="400" font-size="41" transform="matrix(1 0 0 1 3269.75 5929)"></text></g><text font-family="Calibri,Calibri_MSFontService,sans-serif" font-weight="400" font-size="41" transform="matrix(1 0 0 1 3393.5 5929)">Tiendas de aplicaciones <tspan font-size="41" x="0" y="57">móviles</tspan></text><g clip-path="url(#clip101)"><text font-family="Symbol,Symbol_MSFontService,sans-serif" font-weight="400" font-size="41" transform="matrix(1 0 0 1 3269.75 6089)"></text></g><text font-family="Calibri,Calibri_MSFontService,sans-serif" font-weight="400" font-size="41" transform="matrix(1 0 0 1 3393.5 6089)">Redes sociales</text><g clip-path="url(#clip102)"><text font-family="Symbol,Symbol_MSFontService,sans-serif" font-weight="400" font-size="41" transform="matrix(1 0 0 1 3269.75 6192)"></text></g><text font-family="Calibri,Calibri_MSFontService,sans-serif" font-weight="400" font-size="41" transform="matrix(1 0 0 1 3393.5 6192)">Voz a <tspan font-size="41" x="99.1148" y="0">voz</tspan></text><g clip-path="url(#clip103)"><text font-family="Calibri,Calibri_MSFontService,sans-serif" font-weight="700" font-size="41" transform="matrix(1 0 0 1 416.625 6349)">Estructura de costos</text></g><text font-family="Arial,Arial_MSFontService,sans-serif" font-weight="400" font-size="41" transform="matrix(1 0 0 1 416.625 6451)">•<tspan font-family="Calibri,Calibri_MSFontService,sans-serif" font-size="41" x="61.875" y="0">Codificación de la aplicación (Programadores, IUX, </tspan><tspan font-family="Calibri,Calibri_MSFontService,sans-serif" font-size="41" x="909.792" y="0">testers</tspan><tspan font-family="Calibri,Calibri_MSFontService,sans-serif" font-size="41" x="1024.95" y="0">)</tspan><tspan font-size="41" x="0" y="67">•</tspan><tspan font-family="Calibri,Calibri_MSFontService,sans-serif" font-size="41" x="61.875" y="67">Gerencial (Gerente de proyecto, personal administrativo)</tspan><tspan font-size="41" x="0" y="133">•</tspan><tspan font-family="Calibri,Calibri_MSFontService,sans-serif" font-size="41" x="61.875" y="133">Infraestructura (Equipos, hosting, dominio)</tspan><tspan font-size="41" x="0" y="199">•</tspan><tspan font-family="Calibri,Calibri_MSFontService,sans-serif" font-size="41" x="61.875" y="199">Outsourcing (Equipo legal, contable)</tspan><tspan font-size="41" x="0" y="265">•</tspan><tspan font-family="Calibri,Calibri_MSFontService,sans-serif" font-size="41" x="61.875" y="265">Recursos (Servicios públicos, alimentación, transporte)</tspan><tspan font-size="41" x="0" y="331">•</tspan></text><g clip-path="url(#clip104)"><text font-family="Calibri,Calibri_MSFontService,sans-serif" font-weight="400" font-size="41" transform="matrix(1 0 0 1 478.5 6782)">Soporte (actualizaciones, implementación de nuevas funcionalidades, administración de información </text></g><text font-family="Calibri,Calibri_MSFontService,sans-serif" font-weight="400" font-size="41" transform="matrix(1 0 0 1 478.5 6839)">y publicidad) </text><g clip-path="url(#clip105)"><text font-family="Calibri,Calibri_MSFontService,sans-serif" font-weight="700" font-size="41" transform="matrix(1 0 0 1 2217.87 6349)">Fuentes de Ingreso</text></g><g clip-path="url(#clip106)"><text font-family="Calibri,Calibri_MSFontService,sans-serif" font-weight="400" font-size="41" transform="matrix(1 0 0 1 2217.87 6451)">Publicidad: Banners en la aplicación de productos relacionados con el cuidado animal (comida, veterinarias, artículos, guarde</text></g><text font-family="Calibri,Calibri_MSFontService,sans-serif" font-weight="400" font-size="41" transform="matrix(1 0 0 1 4307.3 6451)">ría<tspan font-size="41" x="43.542" y="0">s, etc.)</tspan></text><g clip-path="url(#clip107)"><text font-family="Calibri,Calibri_MSFontService,sans-serif" font-weight="400" font-size="41" transform="matrix(1 0 0 1 2217.87 6518)">Alianzas estratégicas con instituciones aliadas como veterinarias, tiendas de alimentación de mascotas.</text></g><g clip-path="url(#clip108)"><text font-family="Calibri,Calibri_MSFontService,sans-serif" font-weight="400" font-size="41" transform="matrix(1 0 0 1 2217.87 6584)">Donaciones.</text></g><g clip-path="url(#clip109)"><text font-family="Calibri,Calibri_MSFontService,sans-serif" font-weight="400" font-size="41" transform="matrix(1 0 0 1 2217.87 6650)">Alianzas con organizaciones gubernamentales como MinTIC.</text></g></g></svg>